<svg xmlns="http://www.w3.org/2000/svg" viewBox="0 0 77.68 83.33"><defs><style>.cls-1{fill:#4d4d4d}</style></defs><title>calendrier_aller-picto</title><g id="Calque_2" data-name="Calque 2"><g id="Calque_1-2" data-name="Calque 1"><path class="cls-1" d="M43.78 49.43v33.9h33.9v-33.9zm31.07 31.08H62.14V62.73l6.06 6.06 2-2-9.47-9.48-9.47 9.49 2 2 6.07-6.06v17.77H46.6V52.26h28.25z"/><path class="cls-1" d="M50.85 45.2h12.71V29.66H9.89v41h28.25V45.2zm0-12.72h9.88v9.89h-9.88zm-25.43 0h9.89v9.89h-9.89zm-12.71 0h9.89v9.89h-9.89zm0 12.72h9.89v9.88h-9.89zm9.89 22.59h-9.89v-9.88h9.89zm12.71 0h-9.89v-9.88h9.89zm0-12.71h-9.89V45.2h9.89zm2.83-12.71v-9.89H48v9.89z"/><path class="cls-1" d="M36.72 77.68H2.83V22.6h67.79v19.77a1.42 1.42 0 0 0 2.83 0V7.06A1.42 1.42 0 0 0 72 5.65h-7V1.41A1.41 1.41 0 0 0 63.56 0h-9.9a1.41 1.41 0 0 0-1.4 1.41v4.24H21.19V1.41A1.42 1.42 0 0 0 19.77 0H9.89a1.41 1.41 0 0 0-1.41 1.41v4.24H1.41A1.41 1.41 0 0 0 0 7.06v72a1.42 1.42 0 0 0 1.41 1.42h35.31a1.42 1.42 0 1 0 0-2.83zM55.08 2.83h7.06v8.46h-7.06zm-43.78 0h7.06v8.46H11.3zM2.83 8.48h5.65v4.23a1.41 1.41 0 0 0 1.41 1.41h9.88a1.42 1.42 0 0 0 1.42-1.41V8.48h31.07v4.23a1.41 1.41 0 0 0 1.4 1.41h9.9A1.41 1.41 0 0 0 65 12.71V8.48h5.65v11.29H2.83z"/></g></g></svg>